@startuml
package "Varko integracija" {
    component "<<component>>\nBase manager" as baseManager
    component "<<component>>\nDevice manager" as deviceManager
    component "<<component>>\nGroup manager" as groupManager
    component "<<component>>\nState manager" as stateManager
    component "<<component>>\nZone manager" as zonesManager
    component "<<component>>\nVarko plošča" as varkoDashboard
    component "<<component>>\nRadioBrowserAPI" as radioBrowserAPI
    deviceManager --> baseManager
    groupManager --> baseManager
    stateManager --> baseManager
    zonesManager --> baseManager
    radioBrowserAPI --> baseManager
}

package "Shramba" {
    component "<<component>>\nShramba" as store
}
package "Entitete" {
    component "<<component>>\nEntitete" as entities
}

component "<<component>>\nFrigate" as frigate
component "<<component>>\nMQTT" as mqtt

varkoDashboard ..> deviceManager : proži
varkoDashboard ..> groupManager : proži
varkoDashboard ..> zonesManager : proži
varkoDashboard ..> stateManager : proži
varkoDashboard ..> radioBrowserAPI : proži
deviceManager ..> radioBrowserAPI: proži

zonesManager ..> stateManager : proži

interface "<<interface>>\nUporabniški vmesnik" as uporabniskiVmesnik
interface "<<interface>>\nShramba" as storeInterface
interface "<<interface>>\nmqtt" as mqttInterface
interface "<<interface>>\nfrigate" as frigateInterface
interface "<<interface>>\nEntitete" as entitiesInterface

varkoDashboard -- uporabniskiVmesnik
frigate -- frigateInterface
mqtt --( frigateInterface
mqtt -- mqttInterface
stateManager --( mqttInterface
store -- storeInterface
baseManager --( storeInterface
entities -- entitiesInterface
deviceManager --( entitiesInterface
stateManager --( entitiesInterface

@enduml